<?xml version="1.0" encoding="utf-8"?>
<!-- Svg Vector Icons : http://www.onlinewebfonts.com/icon -->
<!DOCTYPE svg PUBLIC "-//W3C//DTD SVG 1.1//EN" "http://www.w3.org/Graphics/SVG/1.1/DTD/svg11.dtd">
<svg version="1.1" xmlns="http://www.w3.org/2000/svg" xmlns:xlink="http://www.w3.org/1999/xlink" x="0px" y="0px" viewBox="0 0 256 256" enable-background="new 0 0 256 256" xml:space="preserve">
<metadata> Svg Vector Icons : http://www.onlinewebfonts.com/icon </metadata>
<g><g><g><path fill="#000000" d="M111,10.6c-0.7,0.3-8.3,11.3-20.4,29.5L71.3,69H42.3H13.2l-1.6,1.6c-1.7,1.7-2,3.4-1,5.6c0.8,1.9,2.6,2.5,6.8,2.5c2,0,3.7,0.1,3.7,0.2c0,0.1,5.6,20.8,12.5,46c8.4,31,13,46.8,13.9,48.8c1.9,4,6.5,8.6,10.5,10.5c5.9,2.9,5.5,2.9,37.8,2.9c28.2,0,29.3,0,30.8-0.9c1.6-1,1.7-1.2,3.4-8.8c4.7-20.8,20.4-38.5,40.9-45.8c7-2.5,12.2-3.3,20.9-3.3c5.6,0,9.2,0.3,11.8,0.8c4.9,1.1,5.5,1,7.1-0.5c1.3-1.2,1.8-2.8,8-25.5l6.6-24.2l4.2-0.2c4.6-0.3,5.7-0.8,6.5-3.5c0.4-1.2,0.4-1.9-0.2-3.1c-1.3-3.2-0.2-3.1-32.2-3.1l-28.7,0l-19.3-29c-12.9-19.3-19.7-29.1-20.4-29.5c-2.1-1-3.8-0.6-5.5,1.1c-3,3-3.6,1.9,16,31.2L163.1,69h-39.9c-31.8,0-39.8-0.1-39.6-0.6c0.2-0.3,7.8-11.8,16.9-25.4c9.1-13.7,16.9-25.6,17.2-26.5C119.4,12.6,115.1,8.7,111,10.6z"/><path fill="#000000" d="M185.7,138.3c-8,0.9-17.2,4.4-24.1,9c-16,10.7-25.5,30.7-23.5,49.5c1.4,13.5,6.1,23.4,15.5,32.9c6.7,6.8,12.8,10.7,20.7,13.4c19.8,6.6,41.2,1.7,55.8-13c14.7-14.6,19.6-36,13-55.8c-2.7-7.9-6.6-14-13.4-20.7c-9.3-9.2-19.3-14-32.2-15.4C192.6,137.7,190.7,137.7,185.7,138.3z M193.7,167.9c2.9,1.2,3,1.8,3,11v8.2h8.3c8.2,0,8.3,0,9.7,1.2c1.8,1.5,2.3,3.9,1.2,6c-0.5,0.8-1.2,1.7-1.6,1.9c-0.4,0.2-4.5,0.5-9,0.6L197,197l-0.2,8.3c-0.1,4.6-0.4,8.6-0.6,9c-0.2,0.4-1.1,1.1-1.9,1.6c-2.1,1.1-4.5,0.6-6-1.2c-1.2-1.4-1.2-1.5-1.2-9.7v-8.3h-8.3c-7.6,0-8.3-0.1-9.4-0.9c-1.8-1.4-2.4-3.7-1.5-5.7c1.1-2.8,2.4-3.1,11.3-3.1h7.8v-7.8c0-8.9,0.4-10.2,2.9-11.3C191.8,167.1,191.9,167.1,193.7,167.9z"/></g></g></g>
</svg>